<?xml version="1.0" encoding="utf-8"?>
<!-- Generator: Adobe Illustrator 18.0.0, SVG Export Plug-In . SVG Version: 6.00 Build 0)  -->
<!DOCTYPE svg PUBLIC "-//W3C//DTD SVG 1.1//EN" "http://www.w3.org/Graphics/SVG/1.1/DTD/svg11.dtd">
<svg version="1.1" id="Layer_1" xmlns="http://www.w3.org/2000/svg" xmlns:xlink="http://www.w3.org/1999/xlink" x="0px" y="0px"
	 width="120px" height="120px" viewBox="0 0 120 120" enable-background="new 0 0 120 120" xml:space="preserve">
<rect fill="#282933" width="120" height="120"/>
<path fill="#FFFFFF" d="M111.2,20.4c-0.7-2.4-1.7-2.6-3.4-0.4s-7.3,13.1-18.4,19c-8.3,4.4-16.7,0-18.9-0.8c-2.3-0.8-7-1.7-10.5-1.7
	c-2.4,0-4.6,0.3-7,0.9c-0.8,0.2-1.6,0.5-2.4,0.8c-4.8,1.4-15.7,4.1-22.1,0.8c-11.2-5.9-16.8-16.7-18.4-19c-1.7-2.3-2.8-2-3.4,0.4
	C6,22.7,13,42.8,25.3,49.3c5.6,2.9,10.6,3.8,14.7,3.8c0.1,2.1,0.5,3.8,1.2,5.3c0.8,1.6,1.9,2.9,3.2,4s2.8,2,4.5,2.6
	c1.7,0.7,3.4,1.1,5,1.5c3.3,0.8,5.7,1.5,7.2,2.3c1.5,0.7,2.4,1.8,2.4,3.3s-0.7,2.6-1.9,3.2c-1.2,0.7-2.5,0.9-3.9,0.9
	c-2.4,0-4.5-0.6-6.6-1.5c-2.1-1-3.8-2.4-5.2-3.9l-8.8,9.3c2.5,2.4,5.6,4.3,9.4,5.6c3.8,1.2,7.6,1.9,11.6,1.9c2.4,0,4.9-0.3,7.3-0.8
	c2.4-0.6,4.6-1.5,6.6-2.8s3.6-3,4.8-5.1c1.2-2.1,1.9-4.6,1.9-7.7c0-2.4-0.5-4.3-1.3-6c-0.9-1.7-2.1-3.1-3.6-4.2s-3.1-2.1-5-2.8
	c-1.8-0.7-3.7-1.2-5.5-1.6c-3.1-0.8-5.4-1.3-6.7-2c-1.4-0.6-2.1-1.5-2.1-2.9s0.7-2.4,1.9-3s2.6-0.8,4.1-0.8c2,0,3.8,0.4,5.5,1.2
	s3.2,1.9,4.5,3.1c0,0,9.8,3.7,22.1-2.8C104.9,42.8,111.9,22.7,111.2,20.4z"/>
</svg>
